<?xml version="1.0" encoding="UTF-8"?>
<svg version="1.1" xmlns="http://www.w3.org/2000/svg" width="1024" height="1024">
<path d="M0 0 C337.92 0 675.84 0 1024 0 C1024 337.92 1024 675.84 1024 1024 C686.08 1024 348.16 1024 0 1024 C0 686.08 0 348.16 0 0 Z " fill="#FEFEFE" transform="translate(0,0)"/>
<path d="M0 0 C15.55379762 11.91727592 25.82952742 27.37754929 28.64916992 46.96069336 C28.87699222 48.69084282 29.08657074 50.42352847 29.2746582 52.15844727 C30.12995849 59.35513712 31.99647488 65.52091359 37.6875 70.3125 C41.0130392 72.62483754 44.50963793 74.34290704 48.1574707 76.06958008 C64.58756176 83.86577426 74.17154697 95.03560483 80.37109375 112.140625 C81.83753595 116.50235051 83.18962077 120.88385148 84.4375 125.3125 C85.1485791 125.10173828 85.8596582 124.89097656 86.59228516 124.67382812 C95.5706584 122.19723645 103.99041657 121.85875946 113.25390625 121.78515625 C120.3312002 121.64410819 125.38167874 121.45869675 130.55078125 116.13671875 C132.90905939 112.60662539 134.745068 108.92472863 136.625 105.125 C140.359429 97.8492219 144.49728132 92.00260421 150.4375 86.3125 C151.11039063 85.60867187 151.78328125 84.90484375 152.4765625 84.1796875 C163.67493479 73.14908108 178.55702247 68.91597698 193.92163086 68.94116211 C208.47015573 69.32624662 220.50775256 75.83628743 230.98046875 85.6328125 C244.11548994 99.95812973 248.45597865 116.37148436 247.69042969 135.38916016 C247.16728857 141.43558078 245.72431803 147.31349478 244.21630859 153.18115234 C242.43024864 160.29611249 240.91528006 168.03125641 243.4375 175.125 C246.40622397 178.37204184 249.87193229 180.75707626 253.4375 183.3125 C265.82496499 192.49334848 273.67333379 202.9007819 276.4375 218.3125 C278.13048758 234.93641419 273.64746215 252.37888172 264.4375 266.3125 C262.76597573 268.26135107 261.05944934 270.18096289 259.3125 272.0625 C256.23733125 275.56286137 256.23733125 275.56286137 255.2109375 279.94921875 C255.75421772 283.14210333 256.58347266 286.18800974 257.4375 289.3125 C261.83725133 310.65981282 261.71044955 331.97318645 257.4375 353.3125 C258.72785156 353.56644531 260.01820313 353.82039063 261.34765625 354.08203125 C266.43055856 355.21631475 271.09319365 356.95921075 275.875 359 C276.70612305 359.35376709 277.53724609 359.70753418 278.39355469 360.07202148 C289.41571135 364.89988153 300.67456226 371.76132841 305.4375 383.3125 C312.79800738 445.80465087 269.24265893 520.30881658 232.4375 567.3125 C228.25707326 572.44845285 223.8749032 577.39853967 219.4375 582.3125 C218.7244873 583.11010742 218.7244873 583.11010742 217.99707031 583.92382812 C208.70272416 594.31736567 199.19512873 604.37259729 188.2578125 613.05078125 C185.7722454 615.04405459 183.35911146 617.10047709 180.95678711 619.19262695 C161.56201955 635.98905245 120.33794738 671.3125 93.4375 671.3125 C93.50710938 673.19582031 93.50710938 673.19582031 93.578125 675.1171875 C93.87899343 686.56963578 93.6921555 695.30307398 86.25 704.5625 C70.34599369 721.23659503 44.21084662 724.31655101 22.625 727.9375 C21.49707031 728.13158447 20.36914062 728.32566895 19.20703125 728.52563477 C-7.25431664 732.75708268 -33.65117626 733.81072747 -60.3984375 733.70361328 C-64.7003699 733.68652274 -69.00174503 733.69670069 -73.30365849 733.71394157 C-103.07626494 733.81484556 -132.26622204 731.9966284 -161.5625 726.3125 C-162.5510498 726.12429688 -163.53959961 725.93609375 -164.55810547 725.7421875 C-184.58349259 721.87192425 -205.68895988 717.51848151 -218.5625 700.3125 C-222.46579069 693.76504466 -222.76697674 687.43631923 -223.125 680 C-223.16818359 679.16404297 -223.21136719 678.32808594 -223.25585938 677.46679688 C-223.36135307 675.41553065 -223.46237315 673.3640352 -223.5625 671.3125 C-224.75101563 670.80203125 -225.93953125 670.2915625 -227.1640625 669.765625 C-259.64821394 655.60731303 -289.28563451 636.92991855 -316.00219727 613.66796875 C-317.09829741 612.71576283 -318.2009631 611.77108757 -319.30834961 610.83203125 C-324.95391215 605.99524514 -330.24445337 600.81670657 -335.49829102 595.56201172 C-336.98891615 594.07356763 -338.48737017 592.59332723 -339.98632812 591.11328125 C-346.29697716 584.83932468 -352.01585752 578.28200969 -357.5625 571.3125 C-358.61046807 570.06444146 -359.66324627 568.82039213 -360.72265625 567.58203125 C-399.26139159 521.97742533 -439.50887306 446.17800658 -434.5625 384.3125 C-432.37323558 375.73671897 -425.0323121 369.63775584 -417.76098633 365.20922852 C-408.83345835 360.02945525 -398.79786345 354.99582064 -388.5625 353.3125 C-389.04396484 351.98992187 -389.04396484 351.98992187 -389.53515625 350.640625 C-390.55347766 347.10095756 -390.72903024 343.78575775 -390.80859375 340.109375 C-390.41649532 327.19790522 -390.41649532 327.19790522 -394.85546875 315.58984375 C-397.64354156 312.9678737 -397.64354156 312.9678737 -400.6640625 310.703125 C-407.92563431 304.71379623 -413.31777028 293.54025594 -414.5625 284.3125 C-415.73962921 270.7172707 -414.30008261 260.33276853 -407.89453125 248.13671875 C-407.35183594 247.10160156 -406.80914062 246.06648438 -406.25 245 C-405.73824219 244.09636719 -405.22648437 243.19273437 -404.69921875 242.26171875 C-403.01574525 237.89394387 -402.69905852 233.84033641 -404.21020508 229.41625977 C-405.10456116 227.47581055 -406.08791672 225.61792975 -407.125 223.75 C-407.86086869 222.34843948 -408.59520912 220.94607564 -409.328125 219.54296875 C-409.88790039 218.48795166 -409.88790039 218.48795166 -410.45898438 217.41162109 C-418.51754421 202.08252873 -424.62303347 186.51271711 -420.8359375 168.94140625 C-415.87429098 153.10850983 -406.19066697 141.27220391 -391.5625 133.3125 C-380.44404954 127.51533128 -368.74761248 127.69089883 -356.52807617 127.67602539 C-344.88593968 127.76494932 -344.88593968 127.76494932 -335.1875 122 C-331.44459416 115.80980957 -331.01142489 109.34882059 -330.25 102.3125 C-327.93146126 83.14240011 -321.00983425 66.08966663 -306.0625 53.3125 C-290.49527076 41.25667585 -273.88906347 37.75964324 -254.60546875 39.59375 C-237.40706216 42.48330458 -221.53706817 53.16866168 -211.25585938 67.08056641 C-205.92941581 74.87101437 -202.14952028 83.12137184 -198.94921875 91.97265625 C-196.21332666 98.56191749 -192.73300283 103.55377632 -186.04296875 106.375 C-180.94488913 108.27195986 -175.79666547 109.84485559 -170.5625 111.3125 C-170.53671875 110.30832031 -170.5109375 109.30414063 -170.484375 108.26953125 C-169.80576177 89.81079746 -164.18802156 74.25232161 -150.5625 61.3125 C-140.27780674 52.51908726 -128.60669932 48.94444657 -115.36157227 47.56347656 C-109.5696654 46.85847032 -104.93898645 45.30479351 -100.5625 41.3125 C-98.95497639 38.92081022 -98.01193337 36.46007711 -97.0625 33.75 C-89.82177188 15.52455752 -77.44511013 1.46948006 -59.5625 -6.6875 C-40.28891706 -14.39693318 -17.07746989 -11.92111472 0 0 Z " fill="#432927" transform="translate(576.5625,153.6875)"/>
<path d="M0 0 C0.89976562 0.42410156 1.79953125 0.84820313 2.7265625 1.28515625 C35.28174011 16.28335942 71.78643544 23.30401764 107 29 C107.75371887 29.12290405 108.50743774 29.24580811 109.28399658 29.37243652 C187.65501147 42.12903348 266.25055838 45.39112032 345.56240296 45.31367987 C350.31762105 45.3102223 355.07269258 45.31977011 359.82788086 45.33618164 C410.99927658 45.50859886 462.03179103 43.7989747 513 39 C513.92149841 38.91363281 514.84299683 38.82726562 515.79241943 38.73828125 C540.43169388 36.41664593 564.94334207 33.79373804 589.34375 29.61621094 C593.07903554 28.98667964 596.81901849 28.39897309 600.5625 27.8203125 C634.58829071 22.49535627 668.27472069 14.6017161 700 1 C687.22579216 66.04761095 653.80871212 122.99743986 607.45053101 169.72470093 C606.04155849 171.14559002 604.63656153 172.57041788 603.23168945 173.99536133 C597.13275847 180.10192347 590.77028995 185.65259041 584 191 C582.87223145 191.90866821 582.87223145 191.90866821 581.72167969 192.83569336 C566.11329239 205.39841112 549.63026239 215.94457085 532.18701172 225.76708984 C530.82877405 226.53278534 529.47311277 227.30309369 528.12158203 228.08056641 C498.28407006 245.22731257 464.40222276 255.51131956 431 263 C429.61989746 263.31275879 429.61989746 263.31275879 428.21191406 263.63183594 C412.64149976 267.08610293 396.86726431 268.59375782 381 270 C379.83573486 270.11021484 379.83573486 270.11021484 378.64794922 270.22265625 C374.10162914 270.6475671 369.56307323 270.88089105 365 271 C363.97938477 271.02723145 362.95876953 271.05446289 361.90722656 271.08251953 C290.40617467 272.6716539 219.9187668 256.32390246 158 220 C157.19449707 219.52771973 156.38899414 219.05543945 155.55908203 218.56884766 C125.17830474 200.53084087 95.64624419 176.28463155 73 149 C72.56139648 148.48050781 72.12279297 147.96101562 71.67089844 147.42578125 C36.40851223 105.58200666 9.61714914 54.19664253 0 0 Z " fill="#F75A45" transform="translate(162,570)"/>
<path d="M0 0 C1.46329947 1.06974059 2.90084564 2.17547658 4.3125 3.3125 C5.06273437 3.91449219 5.81296875 4.51648438 6.5859375 5.13671875 C15.43764529 13.06700304 19.6279227 23.98365768 23.9375 34.8125 C25.7535461 39.35261525 27.94920467 42.94154039 31.078125 46.69140625 C32.3125 48.3125 32.3125 48.3125 33.3125 51.3125 C35.16799335 52.40004162 35.16799335 52.40004162 37.3125 53.3125 C38.55133715 54.11286489 39.78297589 54.92446323 41.0078125 55.74609375 C45.21911697 58.40324953 49.44499067 59.93217981 54.1875 61.375 C55.77793641 61.88487377 57.36778663 62.39657982 58.95703125 62.91015625 C59.71064941 63.15137207 60.46426758 63.39258789 61.24072266 63.64111328 C73.53361724 67.62478758 84.39622305 73.35876244 90.8203125 85.05859375 C94.19221064 92.15884783 95.4902678 98.11406364 95.234375 106.00390625 C95.20859375 107.27943359 95.1828125 108.55496094 95.15625 109.86914062 C95.09940399 112.51409524 95.01664283 115.15454255 94.921875 117.79882812 C94.73717668 129.30207024 96.8708374 138.79657483 104.625 147.5625 C105.32238281 148.26890625 106.01976562 148.9753125 106.73828125 149.703125 C108.3125 151.3125 108.3125 151.3125 108.3125 152.3125 C107.42691406 152.29678955 106.54132813 152.2810791 105.62890625 152.26489258 C82.75007662 151.55950642 82.75007662 151.55950642 60.3125 155.3125 C59.08660156 155.64121094 57.86070312 155.96992188 56.59765625 156.30859375 C43.40494037 160.2432634 31.52403537 166.84382603 21.1328125 175.87890625 C19.3125 177.3125 19.3125 177.3125 17.3125 177.3125 C18.51432405 169.59038111 20.36052847 162.33231823 22.875 154.9375 C23.22361084 153.9060083 23.57222168 152.8745166 23.93139648 151.81176758 C29.1711676 136.61119738 34.74508998 120.88632923 44.98046875 108.25390625 C47.06083669 105.22181573 46.75859755 102.88128043 46.3125 99.3125 C44.83256844 96.74911311 44.83256844 96.74911311 42.3125 95.3125 C38.64496405 94.68823856 36.98721162 94.86016118 33.8828125 96.94140625 C31.0079324 99.59346129 29.06806796 102.39951094 27.125 105.75 C26.74698242 106.39324219 26.36896484 107.03648437 25.97949219 107.69921875 C18.20728266 121.22273622 11.68541085 135.3295265 7.3125 150.3125 C4.19663171 147.19663171 3.4882224 143.27405171 2.1875 139.125 C1.73225952 137.6855603 1.73225952 137.6855603 1.26782227 136.21704102 C-1.74725732 126.47347637 -4.26644845 116.61080914 -6.76928711 106.72705078 C-9.11723708 97.45951113 -11.6291706 88.25761428 -14.3125 79.08203125 C-15.27685015 75.77831473 -16.18710198 72.46510708 -17.0625 69.13671875 C-17.28397705 68.30374268 -17.5054541 67.4707666 -17.73364258 66.61254883 C-18.14806794 65.04555715 -18.55471387 63.47647801 -18.9519043 61.9050293 C-20.20502254 56.88134118 -20.20502254 56.88134118 -23.6875 53.3125 C-27.51290234 52.82563061 -29.77227323 52.77275088 -33.125 54.75 C-35.80680466 59.14815964 -35.14376242 64.09124445 -34.13894653 68.98306274 C-33.36045536 71.94223498 -32.50995244 74.87051648 -31.62890625 77.80078125 C-30.98165061 80.02937747 -30.33468626 82.2580583 -29.68798828 84.48681641 C-29.35486633 85.61976135 -29.02174438 86.7527063 -28.67852783 87.91998291 C-27.12443626 93.23999719 -25.64029662 98.57915729 -24.15234375 103.91796875 C-23.56479992 106.01507115 -22.9769086 108.11207623 -22.38867188 110.20898438 C-21.95252563 111.7649231 -21.95252563 111.7649231 -21.50756836 113.35229492 C-20.91766275 115.45621001 -20.32749211 117.56005081 -19.73706055 119.66381836 C-17.99897865 125.85731898 -16.26766668 132.0526472 -14.54315186 138.24993896 C-13.66344736 141.39858955 -12.77356889 144.54426314 -11.88330078 147.68994141 C-11.31900794 149.70596291 -10.75503007 151.72207261 -10.19140625 153.73828125 C-9.92359848 154.67512253 -9.65579071 155.61196381 -9.37986755 156.57719421 C-9.14179886 157.43513077 -8.90373016 158.29306732 -8.65844727 159.17700195 C-8.44599869 159.93028275 -8.23355011 160.68356354 -8.0146637 161.45967102 C-7.6875 163.3125 -7.6875 163.3125 -8.6875 165.3125 C-9.20054687 164.81363281 -9.71359375 164.31476563 -10.2421875 163.80078125 C-29.3256569 145.90601281 -58.31885722 125.39892452 -85 121.875 C-87.76589432 122.14539072 -87.76589432 122.14539072 -90.0625 123.8125 C-92.01825155 126.82134854 -92.19975103 128.79911924 -92.31640625 132.3125 C-91.31941272 135.48306326 -89.42625243 136.5210684 -86.6875 138.3125 C-83.34302464 139.64680137 -83.34302464 139.64680137 -79.6875 140.6875 C-56.71867416 147.91109037 -38.0329868 160.9694669 -20.6875 177.3125 C-20.00300781 177.94414062 -19.31851563 178.57578125 -18.61328125 179.2265625 C-12.8730026 184.70745724 -8.31312791 190.88801678 -3.6875 197.3125 C-4.18378906 198.1375 -4.68007813 198.9625 -5.19140625 199.8125 C-17.25441224 220.18750293 -25.07946786 241.05086307 -25.00317383 264.99023438 C-25.00002509 267.04611918 -25.02352485 269.10054286 -25.04882812 271.15625 C-25.11222741 284.00776484 -23.00323631 296.09582662 -18.3125 308.125 C-18.01085937 308.92542725 -17.70921875 309.72585449 -17.3984375 310.55053711 C-15.40412574 315.74810649 -13.16995945 320.73900178 -10.4375 325.59765625 C-10.19 326.16355469 -9.9425 326.72945312 -9.6875 327.3125 C-10.0175 327.9725 -10.3475 328.6325 -10.6875 329.3125 C-40.68253823 317.19762092 -69.65110956 294.67059954 -82.6875 264.3125 C-84.4964553 258.51714321 -84.842518 252.2330455 -82.59375 246.546875 C-76.05570102 234.931405 -66.79554516 232.77956139 -54.6875 229.3125 C-53.6975 228.9825 -52.7075 228.6525 -51.6875 228.3125 C-49.0395744 220.36872319 -50.34895231 212.66633069 -53.83691406 205.24584961 C-54.5054541 203.91759155 -54.5054541 203.91759155 -55.1875 202.5625 C-55.64092773 201.62092041 -56.09435547 200.67934082 -56.56152344 199.70922852 C-57.48207488 197.80594803 -58.41260715 195.9074596 -59.35351562 194.01416016 C-60.58063601 191.52892696 -61.75983893 189.0278761 -62.921875 186.51171875 C-63.59239052 185.09050365 -64.26417876 183.669888 -64.9375 182.25 C-65.22947266 181.61416992 -65.52144531 180.97833984 -65.82226562 180.32324219 C-68.27603004 175.32050076 -71.47034348 171.50273007 -76.8203125 169.5234375 C-91.62592759 167.85083663 -104.17241637 174.64173743 -115.6875 183.3125 C-119.17724944 186.16731555 -122.45140375 189.17570635 -125.6875 192.3125 C-126.29851562 192.85003906 -126.90953125 193.38757813 -127.5390625 193.94140625 C-136.680124 202.26853761 -142.4841955 213.87291834 -146.6875 225.3125 C-147.16509766 226.56160156 -147.16509766 226.56160156 -147.65234375 227.8359375 C-148.34524417 229.65599851 -149.01913377 231.48328715 -149.6875 233.3125 C-155.7639797 228.07997582 -158.95373491 221.09876189 -159.9609375 213.15625 C-160.37178275 203.67520585 -156.17356981 196.21011159 -152 187.9375 C-147.42868894 178.85237865 -145.81740899 170.12176447 -149.0625 160.1875 C-151.15830506 154.9856817 -153.93106134 150.18387886 -156.6875 145.3125 C-163.70554441 132.86886925 -168.67141492 121.08052399 -164.9921875 106.5703125 C-164.0622297 104.31184356 -163.01088435 102.36333475 -161.6875 100.3125 C-161.25179687 99.61769531 -160.81609375 98.92289062 -160.3671875 98.20703125 C-154.36144795 89.46096792 -145.13190666 83.40115455 -134.6875 81.3125 C-132.66823638 81.27663852 -130.64765677 81.29752074 -128.62890625 81.35546875 C-127.43716797 81.37673828 -126.24542969 81.39800781 -125.01757812 81.41992188 C-122.54071944 81.47256636 -120.06408311 81.53731685 -117.58789062 81.61523438 C-105.1428018 81.79521156 -94.5463973 79.33494641 -85.125 71.0625 C-77.13607722 62.04935635 -75.11297159 52.45094022 -74.02758789 40.63623047 C-72.53092711 24.46685785 -67.37243658 12.58033084 -54.75 1.9375 C-39.04314097 -10.04230773 -16.69899354 -10.26530596 0 0 Z " fill="#88C653" transform="translate(337.6875,217.6875)"/>
<path d="M0 0 C17.48777436 14.87684693 29.39572724 37.16418973 32.32421875 59.88671875 C33.50384863 76.72678479 33.1640011 92.95111085 27.32421875 108.88671875 C26.92847656 110.01851562 26.53273438 111.1503125 26.125 112.31640625 C21.67778325 123.92940414 14.43764564 133.57455132 6.32421875 142.88671875 C5.78410156 143.51191406 5.24398437 144.13710938 4.6875 144.78125 C-11.16019354 161.82650224 -35.94679935 172.76148139 -58.97851562 174.01171875 C-88.13797187 174.99434575 -113.66148882 167.65393827 -135.67578125 147.88671875 C-136.37058594 147.27441406 -137.06539063 146.66210938 -137.78125 146.03125 C-154.14995249 130.70805346 -165.71977828 106.81423873 -166.79833984 84.33203125 C-167.57318714 56.90713293 -162.16996169 31.05910779 -143.05078125 10.38671875 C-141.27696243 8.53486033 -139.47806403 6.71118347 -137.67578125 4.88671875 C-137.10601562 4.24476563 -136.53625 3.6028125 -135.94921875 2.94140625 C-100.18791844 -36.48771974 -38.47680945 -30.38825389 0 0 Z " fill="#C5E59A" transform="translate(494.67578125,410.11328125)"/>
<path d="M0 0 C9.35032876 6.82321288 17.52826189 17.44958079 19.76635742 29.03735352 C20.13354982 31.66734066 20.44845433 34.29921174 20.75 36.9375 C22.3010702 48.7853845 24.48737451 59.01630112 33.3125 67.6875 C37.04986095 70.51862117 41.14037574 72.58419036 45.31103516 74.70263672 C59.1348739 81.72461356 67.07736346 86.85289662 73.3125 101.6875 C76.4823754 112.66067916 75.09643969 126.47277808 70.3125 136.6875 C66.3211892 143.51687604 61.48506467 148.59451433 55.484375 153.6640625 C47.3325321 161.25876506 41.77781679 171.9381858 41.109375 183.0703125 C41.0205907 190.15825921 41.49572188 196.25002078 43.63671875 203.05859375 C45.39538074 209.90009385 44.71606865 216.12796005 42.3125 222.6875 C41.01957031 222.64109375 39.72664062 222.5946875 38.39453125 222.546875 C27.99104223 222.28523397 19.05974576 222.59338565 9.3125 226.6875 C8.03052734 227.17863281 8.03052734 227.17863281 6.72265625 227.6796875 C-10.33674531 235.06400982 -20.73864818 251.57241029 -27.96655273 267.83154297 C-28.71603395 269.76095583 -29.22815436 271.67106469 -29.6875 273.6875 C-30.3475 273.6875 -31.0075 273.6875 -31.6875 273.6875 C-32.18378906 272.66011719 -32.68007813 271.63273437 -33.19140625 270.57421875 C-37.24259144 262.27821818 -41.50466864 254.34968582 -46.6875 246.6875 C-50.65229313 240.7403103 -48.41104545 232.52587524 -47.4453125 225.74609375 C-47.31687958 224.81958511 -47.18844666 223.89307648 -47.05612183 222.93849182 C-46.78471885 220.99092779 -46.51059661 219.04374094 -46.23388672 217.09692383 C-45.81340946 214.13141418 -45.40416587 211.16450483 -44.99609375 208.19726562 C-44.72983786 206.29678085 -44.46293263 204.3963869 -44.1953125 202.49609375 C-44.0743924 201.61674667 -43.95347229 200.7373996 -43.82888794 199.83140564 C-42.68730881 191.89051681 -41.12509939 185.56505856 -36.25 179 C-35.81260498 178.39986084 -35.37520996 177.79972168 -34.92456055 177.18139648 C-30.28173538 170.93583812 -25.08263951 165.28307813 -19.6875 159.6875 C-18.74777344 158.67042969 -18.74777344 158.67042969 -17.7890625 157.6328125 C-13.28089455 152.87066326 -8.16335066 149.26594344 -2.6875 145.6875 C-1.96304688 145.19507813 -1.23859375 144.70265625 -0.4921875 144.1953125 C5.9487435 140.04349286 12.87943356 137.2260224 19.97631836 134.40258789 C21.18106812 133.91713501 21.18106812 133.91713501 22.41015625 133.421875 C23.50082397 132.99213379 23.50082397 132.99213379 24.61352539 132.55371094 C26.50237277 131.80251003 26.50237277 131.80251003 27.3125 129.6875 C27.85534346 124.12506343 27.85534346 124.12506343 25.75 119.1875 C22.52736376 117.20433924 19.95979918 117.11617009 16.3125 117.6875 C12.77853297 118.91568148 9.47134114 120.5217042 6.125 122.1875 C5.19389404 122.64237793 4.26278809 123.09725586 3.3034668 123.56591797 C-9.28140325 129.82821419 -20.14082982 137.92382681 -30.6875 147.1875 C-33.6875 149.6875 -33.6875 149.6875 -35.6875 149.6875 C-33.87836787 134.71068057 -31.87427049 119.77107569 -29.640625 104.8515625 C-29.46055908 103.64789032 -29.28049316 102.44421814 -29.0949707 101.20407104 C-28.18177832 95.11374054 -27.26021505 89.02477648 -26.33007812 82.93701172 C-25.98558677 80.65593812 -25.64118201 78.37485143 -25.296875 76.09375 C-25.05339325 74.52350571 -25.05339325 74.52350571 -24.80499268 72.92153931 C-22.98790102 63.80693448 -22.98790102 63.80693448 -25.1875 55.25 C-28.96578899 52.88856938 -31.26540439 53.12596405 -35.6875 53.6875 C-39.50342689 57.09861275 -39.66766756 61.91644097 -40.37109375 66.71875 C-40.58165154 68.06246925 -40.58165154 68.06246925 -40.79646301 69.43333435 C-41.25044448 72.34979329 -41.68783035 75.26847808 -42.125 78.1875 C-42.43430856 80.19358171 -42.74453371 82.1995223 -43.05566406 84.20532227 C-44.9355834 96.39295372 -46.75124823 108.59320058 -48.35717773 120.8203125 C-49.35908854 128.22714624 -50.90381842 135.43049339 -52.6875 142.6875 C-56.01466886 139.44758207 -59.04256643 136.12938894 -61.9375 132.5 C-76.49933363 113.62119477 -76.49933363 113.62119477 -97.0625 103.125 C-100.21162494 103.79981249 -101.63529474 104.16170891 -103.6875 106.6875 C-104.40865787 112.08190395 -104.40865787 112.08190395 -102.25 116.8125 C-99.24991287 119.0076857 -96.15348123 121.0296986 -93.046875 123.0703125 C-75.86444708 134.84767203 -63.9007386 154.31100709 -59.02734375 174.41015625 C-57.97644196 184.54471487 -59.05500159 194.42343228 -60.34155273 204.47216797 C-60.62800913 206.71101837 -60.90371245 208.95100299 -61.17773438 211.19140625 C-62.64589837 223.00976041 -62.64589837 223.00976041 -63.6875 226.6875 C-72.23821885 223.92109096 -75.93882012 218.18110677 -80.46484375 210.8203125 C-85.6185227 203.55625184 -91.52636244 199.24754894 -99.3125 195.0625 C-107.22966768 190.77301286 -113.08941013 186.69612106 -117.6875 178.6875 C-118.18579102 175.16748047 -118.18579102 175.16748047 -118.19140625 171.3046875 C-118.20082748 170.60916779 -118.21024872 169.91364807 -118.21995544 169.197052 C-118.24843826 166.98523238 -118.25169334 164.77448719 -118.25 162.5625 C-118.2816917 143.52212809 -121.13945667 128.00224013 -134.77685547 113.92602539 C-142.5254187 105.85695219 -144.16160753 97.67278288 -143.96484375 86.83984375 C-143.46734419 75.94683106 -137.71698065 66.21808725 -129.875 58.875 C-123.10640136 52.82360386 -115.13388789 51.17819003 -106.375 50.3125 C-94.8287587 48.88374484 -85.19701252 45.94908045 -77.55078125 36.640625 C-74.68407315 32.0971631 -72.69482482 27.22491823 -70.61181641 22.28442383 C-68.05966906 16.29592551 -65.25868818 11.39064 -60.6875 6.6875 C-59.94886719 5.91019531 -59.21023438 5.13289062 -58.44921875 4.33203125 C-41.96971019 -11.77951381 -18.92407518 -12.13081742 0 0 Z " fill="#88C653" transform="translate(567.6875,168.3125)"/>
<path d="M0 0 C1.48578222 2.11770205 2.81871826 4.21105277 4.125 6.4375 C4.52243408 7.11127686 4.91986816 7.78505371 5.3293457 8.47924805 C12.95745697 21.64929199 18.85557916 35.35430231 23 50 C23.31759277 51.09344727 23.31759277 51.09344727 23.64160156 52.20898438 C29.81376553 74.37399792 29.3891739 100.95666206 23 123 C22.64591064 124.27375488 22.64591064 124.27375488 22.28466797 125.57324219 C15.13776637 150.7601952 1.42271313 170.6705833 -17 189 C-17.58652344 189.58652344 -18.17304687 190.17304687 -18.77734375 190.77734375 C-22.50181356 192.82612943 -26.52326864 193.27040745 -30.6875 193.9375 C-32.20657959 194.18898804 -32.20657959 194.18898804 -33.75634766 194.44555664 C-69.46279323 200.17044912 -105.82599893 203.60114883 -141.875 206.3125 C-142.88159668 206.38871582 -143.88819336 206.46493164 -144.92529297 206.54345703 C-163.7440124 207.84501173 -163.7440124 207.84501173 -169.4375 204.9375 C-170.34371094 204.47730469 -171.24992188 204.01710938 -172.18359375 203.54296875 C-173.11300781 203.03378906 -174.04242187 202.52460937 -175 202 C-175.98097656 201.48050781 -176.96195313 200.96101562 -177.97265625 200.42578125 C-185.33221032 196.35191196 -191.66214436 191.50589524 -198 186 C-198.83273437 185.31292969 -199.66546875 184.62585938 -200.5234375 183.91796875 C-207.76611082 177.76055405 -213.39708197 170.62241639 -219 163 C-219.680625 162.07832031 -220.36125 161.15664063 -221.0625 160.20703125 C-224.13655309 155.84500685 -224.13655309 155.84500685 -225 154 C-223.81484967 150.44454901 -222.94956678 150.01247154 -219.8984375 147.98828125 C-219.02807861 147.40393311 -218.15771973 146.81958496 -217.26098633 146.2175293 C-215.8324231 145.27453979 -215.8324231 145.27453979 -214.375 144.3125 C-212.34427441 142.95168063 -210.31435037 141.58966448 -208.28515625 140.2265625 C-207.23859863 139.52563477 -206.19204102 138.82470703 -205.11376953 138.10253906 C-200.30564481 134.85590506 -195.56166334 131.51948704 -190.8125 128.1875 C-182.36527803 122.28213843 -173.83541459 116.51382348 -165.25 110.8125 C-164.67492706 110.43058502 -164.09985413 110.04867004 -163.50735474 109.65518188 C-162.93588715 109.27566376 -162.36441956 108.89614563 -161.77563477 108.50512695 C-147.30555144 98.8939696 -133.02166583 89.02692869 -118.7722168 79.0925293 C-111.23363216 73.84267988 -103.65791389 68.64937976 -96.05932617 63.48681641 C-92.13707299 60.82178922 -88.21791855 58.15280126 -84.31469727 55.45996094 C-75.20501923 49.17566245 -66.03452231 42.99298171 -56.8125 36.875 C-47.41214928 30.63307057 -38.03504751 24.35951505 -28.703125 18.015625 C-27.85372849 17.43881989 -27.00433197 16.86201477 -26.12919617 16.26773071 C-21.96812257 13.44169904 -17.81034246 10.61101963 -13.6574707 7.77294922 C-12.14808579 6.74686939 -10.63857107 5.72098047 -9.12890625 4.6953125 C-8.08751495 3.97979218 -8.08751495 3.97979218 -7.02508545 3.24981689 C-2.22709929 0 -2.22709929 0 0 0 Z " fill="#F65B46" transform="translate(793,388)"/>
<path d="M0 0 C8.59874743 6.14196245 14.95517674 14.82772844 17.25 25.25 C18.14263375 36.06329744 17.25007982 45.56310259 14.25 56 C11.0939295 67.03391479 8.16781704 78.62284215 14.01953125 89.34765625 C14.42558594 89.97542969 14.83164062 90.60320312 15.25 91.25 C15.60449219 91.82621094 15.95898438 92.40242188 16.32421875 92.99609375 C19.62947585 97.51084557 24.0528657 100.20572217 28.6875 103.1875 C36.51037819 108.230786 43.24219113 113.27462262 45.8125 122.65625 C48.09641681 136.19661396 45.2782202 149.83665709 38.49609375 161.7109375 C37.25 163.25 37.25 163.25 34.25 164.25 C34.00467529 163.75822266 33.75935059 163.26644531 33.5065918 162.75976562 C28.93503406 153.66520513 24.21582288 144.7477321 18.5 136.3125 C18.06518311 135.65765625 17.63036621 135.0028125 17.18237305 134.328125 C14.0167972 129.7810873 10.61883448 126.34742335 5.1875 124.578125 C-6.59708613 124.10294008 -17.8928886 134.63106081 -27.01977539 141.12280273 C-36.74349109 148.02156099 -46.68661497 154.58588218 -56.62426758 161.17041016 C-64.79078926 166.58548813 -72.89962987 172.07531636 -80.96435547 177.64086914 C-86.43484817 181.41583256 -91.93704307 185.14386846 -97.4375 188.875 C-105.22368111 194.1590667 -112.99109569 199.46481332 -120.6875 204.87890625 C-122.75 206.25 -122.75 206.25 -123.75 206.25 C-123.87375 205.2084375 -123.9975 204.166875 -124.125 203.09375 C-126.44412827 186.12339917 -132.96457557 172.06876238 -146.44921875 161.04296875 C-151.93300212 156.92057093 -157.64995143 153.38286445 -163.75 150.25 C-162.875 142.625 -162.875 142.625 -161.75 139.25 C-161.18534377 131.095061 -161.88374512 123.97186562 -164.06640625 116.12890625 C-165.70069854 109.246201 -165.8134297 102.51534997 -162.2109375 96.28125 C-158.11958475 90.59273816 -153.20948359 85.61004885 -148.125 80.8125 C-142.34130036 75.08210635 -138.52560574 68.00726309 -135.12402344 60.68457031 C-132.18746799 54.39476385 -130.38127178 50.67296469 -123.75 48.25 C-120.33503912 47.11167971 -117.62786851 47.09092338 -114.02734375 47.0390625 C-112.66991051 47.01096018 -111.31248883 46.98229556 -109.95507812 46.953125 C-107.83146922 46.91216916 -105.70806791 46.87525784 -103.58422852 46.84863281 C-91.41850821 46.68317103 -80.13177792 45.78053553 -70.75 37.25 C-67.13494847 32.59840526 -64.77434469 27.3019512 -62.2512207 22.00805664 C-56.60670708 10.28023885 -48.85998718 1.07982048 -36.609375 -4.0703125 C-23.15099395 -8.63085395 -12.11230869 -7.51373725 0 0 Z " fill="#88C653" transform="translate(789.75,246.75)"/>
<path d="M0 0 C9.60672046 7.09499031 16.816352 16.04613054 19.125 27.9375 C19.26164063 28.90042969 19.39828125 29.86335938 19.5390625 30.85546875 C19.94357586 34.05302194 19.94357586 34.05302194 20.8984375 37.30078125 C21.64194689 41.5638903 21.53580672 43.92945212 20 48 C15.59542249 52.83614154 9.4996143 55.97220444 3.95448303 59.31842041 C-4.51976243 64.4640771 -12.65648473 70.13036815 -20.85360718 75.70187378 C-24.51064314 78.18359846 -28.17711565 80.65115477 -31.84387207 83.1184845 C-57.69680857 98.10045801 -57.69680857 98.10045801 -79 118 C-80.34298542 125.26308442 -75.75559599 132.17370853 -72 138 C-66.57822524 145.85292704 -60.55669273 153.07595436 -54 160 C-53.23042969 160.82242188 -52.46085938 161.64484375 -51.66796875 162.4921875 C-46.51348947 167.83819024 -41.07071872 172.45818011 -35.11425781 176.86523438 C-33.7286664 177.89128943 -32.362216 178.94310828 -31 180 C-31 180.33 -31 180.66 -31 181 C-46.6348119 181.90853384 -62.21613258 182.14841559 -77.875 182.1328125 C-80.30249033 182.13348836 -82.7299806 182.13446072 -85.1574707 182.13571167 C-90.20313166 182.13717313 -95.24877474 182.1350831 -100.29443359 182.13037109 C-106.73048308 182.12465007 -113.16649106 182.12797767 -119.60253906 182.13394356 C-124.5990632 182.1375704 -129.59557761 182.13640126 -134.59210205 182.13381577 C-136.96494553 182.13315364 -139.33778992 182.13394963 -141.71063232 182.13629532 C-165.36772154 182.15457327 -165.36772154 182.15457327 -176 181 C-172.99726936 178.99817957 -170.94748784 178.35712627 -167.5 177.4375 C-139.05964413 168.84515168 -115.22592154 150.26875366 -100.85546875 124.16015625 C-96.21512439 115.42132008 -92.73763734 106.50745371 -90 97 C-89.64292969 95.81921875 -89.28585937 94.6384375 -88.91796875 93.421875 C-87.18204855 86.34885111 -87.32148252 78.86170264 -87.05273438 71.6171875 C-86.64994834 64.26335134 -85.34188763 58.64411879 -82.26342773 51.96533203 C-80.11732702 46.9283196 -79.08596017 41.64907703 -77.9375 36.3125 C-74.47353077 20.31226117 -68.60266839 6.96345532 -55 -3 C-36.50925634 -14.12842612 -17.91320027 -10.82343248 0 0 Z " fill="#88C653" transform="translate(630,417)"/>
<path d="M0 0 C1.60411235 2.44262562 2.80348806 4.61755312 4 7.25 C4.3403125 7.96494629 4.680625 8.67989258 5.03125 9.41650391 C13 26.42178622 13 26.42178622 13 31 C12.23816406 31.27972656 11.47632813 31.55945313 10.69140625 31.84765625 C-1.51204754 36.5858262 -10.3973811 43.17847368 -16.1328125 55.14453125 C-18.26976464 60.08506344 -18.6581857 64.47375499 -18.5625 69.8125 C-18.55081787 70.6905127 -18.53913574 71.56852539 -18.52709961 72.47314453 C-18.27734569 79.85415546 -16.75639403 85.5868589 -13 92 C-12.03513672 93.67255859 -12.03513672 93.67255859 -11.05078125 95.37890625 C5.94169594 123.67626366 33.65334027 147.39745333 65 158 C65.7425 158.25265625 66.485 158.5053125 67.25 158.765625 C70.20458063 159.62737768 73.01681901 160.00046838 76.0859375 160.0859375 C83.07884423 160.29396447 86.81625806 160.77826127 91.76171875 165.78515625 C103.82255518 177.7197012 119.41163473 184.84127292 135 191 C131.35560237 192.20640198 128.22670048 191.92194987 124.4296875 191.58203125 C123.44595657 191.49670387 123.44595657 191.49670387 122.44235229 191.40965271 C120.25254078 191.21767538 118.0638094 191.01556601 115.875 190.8125 C114.30764444 190.67059712 112.74026093 190.52900263 111.17285156 190.38769531 C107.83264916 190.08533206 104.49291574 189.77822629 101.15332031 189.46923828 C96.93666368 189.08153066 92.71833412 188.71853968 88.4987793 188.36395264 C68.44284321 186.67081125 48.53520956 184.40032415 28.625 181.4375 C27.62335815 181.28970093 26.62171631 181.14190186 25.58972168 180.98962402 C-4.9040512 176.45538839 -4.9040512 176.45538839 -13 168 C-13.93005859 167.13761719 -13.93005859 167.13761719 -14.87890625 166.2578125 C-38.85675382 143.68472772 -55.23472239 111.36436697 -56.3125 78.375 C-56.04502588 65.21527352 -54.18957584 51.14431353 -49 39 C-48.57976562 38.01 -48.15953125 37.02 -47.7265625 36 C-40.24868215 19.80481161 -27.66526768 8.00942494 -11.40625 0.859375 C-7.28358371 -0.65226931 -4.23702733 -1.72398608 0 0 Z " fill="#FDD22D" transform="translate(257,404)"/>
<path d="M0 0 C12.7807208 16.37529852 12.51392926 43.90649772 10.23071289 63.47924805 C6.55218925 90.83968779 -5.84468126 115.85327588 -27.41015625 133.5390625 C-39.11008658 142.46478255 -51.84952645 148.63688476 -66 152.5625 C-66.63905273 152.74796387 -67.27810547 152.93342773 -67.93652344 153.12451172 C-92.72060293 159.57666061 -120.38777694 153.8890408 -142.18554688 141.30029297 C-156.48238636 132.59772727 -156.48238636 132.59772727 -160 125.5625 C-160.44573133 120.75924592 -159.74763217 118.47593863 -156.8125 114.6875 C-155.72582031 113.27404297 -155.72582031 113.27404297 -154.6171875 111.83203125 C-153.74685575 110.74053845 -152.87428033 109.65083257 -152 108.5625 C-151.49114258 107.9236084 -150.98228516 107.2847168 -150.45800781 106.62646484 C-146.68565739 101.89921713 -142.85865618 97.21945437 -139 92.5625 C-138.2575 91.66144531 -137.515 90.76039063 -136.75 89.83203125 C-133.35565718 85.81587993 -130.87413182 83.06547307 -125.5 82.125 C-123 82.5625 -123 82.5625 -120.625 84.5625 C-118.85793004 87.824783 -118.75407081 89.66420573 -119.3046875 93.29296875 C-120.69979879 97.8466747 -123.77719767 101.36603037 -126.6875 105.0625 C-127.30044922 105.86558594 -127.91339844 106.66867187 -128.54492188 107.49609375 C-129.75965712 109.08568367 -130.98072843 110.67045436 -132.20849609 112.25 C-134.8473801 115.65631089 -137.42502707 119.10775954 -140 122.5625 C-139.31679688 122.81257812 -138.63359375 123.06265625 -137.9296875 123.3203125 C-135.15647989 124.49615253 -132.60233327 125.88213421 -129.99291992 127.38085938 C-111.42891002 137.8821056 -88.86923992 140.10338267 -68.15234375 134.59765625 C-44.2483388 126.74813789 -27.70945441 113.14202268 -16.02734375 90.86328125 C-10.51041836 79.88974043 -6.50128554 67.92027828 -6 55.5625 C-5.96003906 54.67691406 -5.92007813 53.79132813 -5.87890625 52.87890625 C-5.60668797 40.82123791 -7.41376375 29.06236423 -11 17.5625 C-19.02343333 17.91134493 -25.42558253 22.08698527 -31.25 27.4375 C-34 29.5625 -34 29.5625 -37.1875 30.125 C-40 29.5625 -40 29.5625 -41.875 28.125 C-43.59492631 24.20739007 -43.7265626 20.76516604 -43 16.5625 C-39.88685943 8.7953715 -31.98870904 5.46188526 -24.8828125 2.078125 C-16.87921044 -1.33828067 -8.25854613 -3.95722002 0 0 Z " fill="#422A28" transform="translate(783,428.4375)"/>
<path d="M0 0 C0.81750732 0.26627197 1.63501465 0.53254395 2.47729492 0.80688477 C47.7543964 15.470115 92.18705691 24.14229401 139.875 24.1875 C141.30552704 24.18926743 141.30552704 24.18926743 142.76495361 24.19107056 C160.48985987 24.18859027 178.09316622 23.66707758 195.6875 21.375 C196.33209167 21.29108002 196.97668335 21.20716003 197.64080811 21.12069702 C222.42295351 17.84043094 246.24038072 11.74991233 269.97167969 3.97851562 C274.29372536 2.58196942 278.64210573 1.27963062 283 0 C283.28610666 5.77388375 283.38903963 10.02940854 280 15 C258.68813584 37.99437975 199.60597001 36.60178968 170.39538574 37.91430664 C161.91356903 38.21773809 153.42359041 38.19578426 144.9375 38.1875 C143.88574585 38.18722809 142.8339917 38.18695618 141.75036621 38.18667603 C123.75126813 38.16537915 105.93524205 37.5751264 88 36 C86.24913086 35.85522217 86.24913086 35.85522217 84.46289062 35.70751953 C16.26926368 29.9298458 16.26926368 29.9298458 2.1796875 15.515625 C-0.32039736 12.30359544 -0.10505834 9.87548378 -0.0625 5.875 C-0.05347656 4.77929688 -0.04445313 3.68359375 -0.03515625 2.5546875 C-0.02355469 1.71164062 -0.01195312 0.86859375 0 0 Z " fill="#F55B46" transform="translate(371,832)"/>
<path d="M0 0 C2.1640625 0.4140625 2.1640625 0.4140625 4.7265625 2.5390625 C6.40394835 5.8938342 6.46136375 7.69938293 6.1640625 11.4140625 C5.08227539 14.02392578 5.08227539 14.02392578 3.57421875 16.609375 C3.0239502 17.56360352 2.47368164 18.51783203 1.90673828 19.50097656 C1.33165527 20.46229492 0.75657227 21.42361328 0.1640625 22.4140625 C-0.3633252 23.30577148 -0.89071289 24.19748047 -1.43408203 25.11621094 C-3.06993012 27.85248395 -4.73021087 30.57241905 -6.3984375 33.2890625 C-7.3102478 34.78107178 -7.3102478 34.78107178 -8.24047852 36.30322266 C-12.74455952 43.66356438 -17.29316683 50.99597848 -21.84960938 58.32397461 C-26.92906043 66.51621349 -31.88107633 74.78375065 -36.81225586 83.06591797 C-45.92853582 98.34543808 -45.92853582 98.34543808 -49.8359375 100.4140625 C-52.7734375 100.9140625 -52.7734375 100.9140625 -55.8359375 100.4140625 C-58.7109375 98.3515625 -58.7109375 98.3515625 -60.8359375 95.4140625 C-61.51803951 89.59158345 -59.95441904 86.01233362 -56.8984375 81.2265625 C-56.46023682 80.51081055 -56.02203613 79.79505859 -55.57055664 79.05761719 C-54.56926701 77.42403201 -53.56123092 75.7945701 -52.54785156 74.16845703 C-49.61293941 69.4463123 -46.73514538 64.68939434 -43.85025024 59.93658447 C-42.76601729 58.15184823 -41.67943036 56.36856159 -40.5925293 54.58544922 C-34.4839928 44.5512543 -28.52794867 34.43121745 -22.63256836 24.27050781 C-8.33445253 -0.29862859 -8.33445253 -0.29862859 0 0 Z " fill="#452828" transform="translate(740.8359375,319.5859375)"/>
<path d="M0 0 C12.54770749 2.01554229 26.17910966 6.07260967 34.7578125 16.04296875 C36 18 36 18 36.25 20.75 C33.66243692 27.477664 27.39257427 31.58225951 21.0625 34.625 C5.8437786 40.91877275 -10.05379338 45.0209118 -26 49 C-26 44.75541361 -23.60600766 42.42075788 -21.1875 39.125 C-16.60973335 32.69119937 -12.6973674 26.07068875 -9.0625 19.0625 C-8.61479248 18.19963379 -8.16708496 17.33676758 -7.70581055 16.44775391 C-4.94722725 11.04494351 -2.40369777 5.56933827 0 0 Z " fill="#FCFCFC" transform="translate(830,524)"/>
<path d="M0 0 C0.25056152 0.5576001 0.50112305 1.1152002 0.75927734 1.68969727 C6.26984897 13.85419042 12.10325237 25.21736693 20 36 C20.43328613 36.59264648 20.86657227 37.18529297 21.31298828 37.79589844 C23.83598707 41.22792573 26.39913054 44.62640845 29 48 C25.85466391 49.57266805 23.52581972 48.26813516 20.18359375 47.375 C19.15722557 47.10180435 19.15722557 47.10180435 18.11012268 46.8230896 C15.88306673 46.22537372 13.65998625 45.61447801 11.4375 45 C10.68557373 44.79336731 9.93364746 44.58673462 9.15893555 44.37384033 C-26.89795989 34.41481839 -26.89795989 34.41481839 -35 22 C-34.88616847 17.5605703 -32.92978183 15.19963015 -30 12 C-27.68795603 10.49141238 -25.50213809 9.1892678 -23.0625 7.9375 C-22.40805908 7.59460938 -21.75361816 7.25171875 -21.0793457 6.8984375 C-14.77620325 3.70012284 -7.15648048 0 0 0 Z " fill="#FCFBFB" transform="translate(193,524)"/>
<path d="M0 0 C9.62432509 3.09935893 15.39118463 15.61955679 19.80126953 24.1875 C21.31328456 27.59973887 21.64805323 30.61816016 21.4296875 34.3046875 C20.40689484 36.89935097 19.06433419 37.78632831 16.6875 39.1875 C13.25 39.6875 13.25 39.6875 9.6875 39.1875 C4.75566763 35.16866801 2.00991285 29.99473296 -1.0625 24.5 C-1.55621094 23.63310547 -2.04992187 22.76621094 -2.55859375 21.87304688 C-7.48695625 13.19777864 -7.48695625 13.19777864 -7.625 8.25 C-7.66238281 7.37472656 -7.69976563 6.49945312 -7.73828125 5.59765625 C-7.3125 3.1875 -7.3125 3.1875 -5.5 1.3828125 C-3.3125 0.1875 -3.3125 0.1875 0 0 Z " fill="#412A27" transform="translate(711.3125,509.8125)"/>
<path d="M0 0 C4.55839309 5.27813936 5.14434495 10.23328825 5.1875 17 C5.20167969 18.010625 5.21585938 19.02125 5.23046875 20.0625 C4.93626368 23.81236799 3.84772163 26.63422626 1.875 29.8125 C-1.22850958 31.77805607 -4.49994041 31.63509146 -8 31 C-10.64578165 29.16830501 -11.72904391 27.99045436 -12.578125 24.88671875 C-13.13441704 21.08023896 -13.26272297 17.3427864 -13.3125 13.5 C-13.34150391 12.75363281 -13.37050781 12.00726562 -13.40039062 11.23828125 C-13.44574378 7.29604556 -13.28402882 5.4450761 -11.10546875 2.03125 C-7.33950691 -1.60195994 -5.02543881 -1.29968245 0 0 Z " fill="#432A28" transform="translate(687,527)"/>
<path d="M0 0 C3.46916946 1.91623528 5.75664067 3.634961 8 7 C8.4375 10.4375 8.4375 10.4375 8 14 C5.56652976 16.79133351 4.05872053 17.87922744 0.36328125 18.30078125 C-4.05585747 17.90557372 -7.62615783 16.46704716 -11.6875 14.75 C-12.44611328 14.44964844 -13.20472656 14.14929688 -13.98632812 13.83984375 C-21.11498636 10.88267749 -21.11498636 10.88267749 -23 7 C-23.34786526 4.16815941 -22.92616926 1.69275136 -22 -1 C-15.42684728 -7.18649667 -7.03718452 -3.39686172 0 0 Z " fill="#412A27" transform="translate(760,479)"/>
<path d="M0 0 C2.69990662 1.79993774 4.5418865 3.083773 6 6 C6.97900887 20.51568924 6.97900887 20.51568924 3 27 C-0.1909164 29.1272776 -2.20159774 29.33381412 -5.96484375 29.55859375 C-9.22925423 28.66260393 -10.260506 26.81851787 -12 24 C-13.05047475 17.04728154 -12.44239331 9.59446195 -10 3 C-7.05997078 -0.3600334 -4.33348902 -0.61906986 0 0 Z " fill="#442A27" transform="translate(428,512)"/>
<path d="M0 0 C4.44696404 0.87351079 5.72274769 2.14087374 8.5 5.6875 C8.95356146 8.57298637 9.11663651 10.77005634 9 13.625 C9.00386719 14.66043945 9.00386719 14.66043945 9.0078125 15.71679688 C8.91908755 20.39703786 7.96940908 23.72313003 5.5 27.6875 C2.37057535 29.25221233 -1.11082223 29.38451958 -4.5 28.6875 C-7.0006193 27.03946443 -8.28112595 25.75247935 -8.89453125 22.76782227 C-9.0769166 20.43593235 -9.09461261 18.15105348 -9.0625 15.8125 C-9.08634766 15.02230469 -9.11019531 14.23210937 -9.13476562 13.41796875 C-9.12442014 9.27287882 -8.7814567 6.48019552 -6.18359375 3.16015625 C-3.5 0.6875 -3.5 0.6875 0 0 Z " fill="#422825" transform="translate(430.5,428.3125)"/>
<path d="M0 0 C2.88381579 2.58803981 3.8491179 4.19529549 4.5625 8 C3.77420858 12.20422093 2.37434593 13.36801018 -1 16 C-11.40416397 22.30135722 -11.40416397 22.30135722 -17 21 C-19.875 18.9375 -19.875 18.9375 -22 16 C-22.62844852 12.08965365 -22.45857934 9.91715868 -20.6875 6.375 C-15.03989136 1.38409004 -7.50335568 -2.75633474 0 0 Z " fill="#422725" transform="translate(399,494)"/>
<path d="M0 0 C5.77184526 1.60495179 10.98021831 5.70665559 14.26171875 10.62890625 C14.8272325 14.99144088 14.75494526 16.92643213 12.19921875 20.56640625 C9.26171875 22.62890625 9.26171875 22.62890625 6.13671875 23.44140625 C-0.65366771 22.01761554 -6.89316202 17.39658509 -10.73828125 11.62890625 C-11.3466728 7.63090461 -11.07079428 6.10689373 -8.73828125 2.75390625 C-5.69765967 0.60013263 -3.75084894 -0.2214787 0 0 Z " fill="#432826" transform="translate(390.73828125,451.37109375)"/>
<path d="M0 0 C2.5625 1.5625 2.5625 1.5625 4 4 C4.57396884 7.94603581 4.4496463 10.15935692 2.5625 13.6875 C-1.9600504 17.76882597 -7.18346576 20.16777198 -13.3125 20.5 C-17 20 -17 20 -19.4375 18.4375 C-21.49240979 15.23184073 -21.86470518 12.78825503 -22 9 C-21.090495 6.46195725 -20.41553523 5.27790573 -18.16015625 3.76953125 C-17.46792969 3.45371094 -16.77570313 3.13789063 -16.0625 2.8125 C-15.37285156 2.48894531 -14.68320312 2.16539062 -13.97265625 1.83203125 C-9.25015971 -0.15983363 -5.07334895 -0.64103687 0 0 Z " fill="#422826" transform="translate(473,459)"/>
<path d="M0 0 C2.921875 1.4609375 2.921875 1.4609375 5.75 3.375 C6.69359375 4.00148438 7.6371875 4.62796875 8.609375 5.2734375 C11 7 11 7 13 9 C13.33957665 12.00767886 13.54493987 14.09747814 13 17 C10.31385787 20.35767766 8.53771764 20.90886142 4.3125 21.625 C-1.15402663 21.35427678 -5.83136687 18.37829748 -10 15 C-11.87488669 12.1225304 -12.00097279 11.05447606 -11.9375 7.5 C-11 4 -11 4 -8.8125 1.5625 C-5.44805737 -0.30663479 -3.80802004 -0.36912096 0 0 Z " fill="#432826" transform="translate(462,497)"/>
<path d="M0 0 C0.83595703 0.00451172 1.67191406 0.00902344 2.53320312 0.01367188 C4.58466649 0.02539452 6.63609273 0.04332797 8.6875 0.0625 C8.3575 1.0525 8.0275 2.0425 7.6875 3.0625 C0.7575 3.0625 -6.1725 3.0625 -13.3125 3.0625 C-13.6425 2.4025 -13.9725 1.7425 -14.3125 1.0625 C-9.54157044 -0.17152862 -4.88780554 -0.05015112 0 0 Z " fill="#502E2A" transform="translate(570.3125,612.9375)"/>
<path d="M0 0 C3.65316671 1.24976756 4.78065836 1.67098753 7 5 C-3.56 5 -14.12 5 -25 5 C-25 4.67 -25 4.34 -25 4 C-12.625 3.505 -12.625 3.505 0 3 C0 2.01 0 1.02 0 0 Z " fill="#99EE5D" transform="translate(592,593)"/>
<path d="M0 0 C7.59 0 15.18 0 23 0 C23 0.33 23 0.66 23 1 C20.50072231 1.33970765 18.00080405 1.67188032 15.5 2 C14.80390625 2.09539062 14.1078125 2.19078125 13.390625 2.2890625 C8.55299871 2.9161622 3.87818804 3.08789528 -1 3 C-0.67 2.01 -0.34 1.02 0 0 Z " fill="#4B3331" transform="translate(673,276)"/>
<path d="M0 0 C4.29 1.65 8.58 3.3 13 5 C9.2142221 5.94644447 7.04738616 5.9693628 3.25 5.5625 C2.26515625 5.46066406 1.2803125 5.35882812 0.265625 5.25390625 C-0.48203125 5.17011719 -1.2296875 5.08632813 -2 5 C-2 4.01 -2 3.02 -2 2 C-1.34 2 -0.68 2 0 2 C0 1.34 0 0.68 0 0 Z " fill="#E5C82C" transform="translate(379,590)"/>
<path d="M0 0 C1.71316406 -0.03867187 1.71316406 -0.03867187 3.4609375 -0.078125 C6.85436235 0.27378573 8.17208921 0.95417216 10.625 3.25 C7.83307795 3.30380578 5.0421859 3.34357669 2.25 3.375 C1.4559375 3.39175781 0.661875 3.40851562 -0.15625 3.42578125 C-2.22992015 3.44335473 -4.30383241 3.35335168 -6.375 3.25 C-7.035 2.59 -7.695 1.93 -8.375 1.25 C-5.55933745 -0.15783127 -3.1386293 0.0423186 0 0 Z " fill="#532D29" transform="translate(484.375,868.75)"/>
<path d="M0 0 C4.59306496 1.4859916 7.43569245 3.85014682 11 7 C11.66 6.34 12.32 5.68 13 5 C13.66 7.64 14.32 10.28 15 13 C4.46431765 5.28295475 4.46431765 5.28295475 0 1 C0 0.67 0 0.34 0 0 Z " fill="#90DC59" transform="translate(315,370)"/>
<path d="M0 0 C0.20674944 5.78898419 -0.40837921 10.42932723 -2 16 C-2.33 16 -2.66 16 -3 16 C-3 11.05 -3 6.1 -3 1 C-1 0 -1 0 0 0 Z " fill="#4B382B" transform="translate(435,331)"/>
<path d="M0 0 C2.67438936 2.38335287 4.15158012 4.87036148 5.75 8.0625 C6.19859375 8.94035156 6.6471875 9.81820312 7.109375 10.72265625 C7.40328125 11.47417969 7.6971875 12.22570312 8 13 C7.67 13.66 7.34 14.32 7 15 C5.02 14.01 3.04 13.02 1 12 C1.66 11.67 2.32 11.34 3 11 C3.66 11.33 4.32 11.66 5 12 C4.6390625 11.30132813 4.278125 10.60265625 3.90625 9.8828125 C3.4421875 8.97273437 2.978125 8.06265625 2.5 7.125 C2.0359375 6.22007812 1.571875 5.31515625 1.09375 4.3828125 C0 2 0 2 0 0 Z " fill="#90DB57" transform="translate(320,532)"/>
<path d="M0 0 C0.33 0.66 0.66 1.32 1 2 C-2.80411834 5.91939465 -6.81576108 9.49102731 -11 13 C-9.46356148 9.31930113 -7.21849055 7.01224796 -4.375 4.25 C-3.55773437 3.45078125 -2.74046875 2.6515625 -1.8984375 1.828125 C-0.95871094 0.92320312 -0.95871094 0.92320312 0 0 Z " fill="#2A2424" transform="translate(786,722)"/>
<path d="M0 0 C0.33 0.66 0.66 1.32 1 2 C-2 5 -5 8 -8 11 C-8.66 10.67 -9.32 10.34 -10 10 C-6.7 6.7 -3.4 3.4 0 0 Z " fill="#2E0F14" transform="translate(504,549)"/>
<path d="M0 0 C2.42130331 2.42130331 2.52840504 3.80111377 3.125 7.125 C3.29257813 8.03507813 3.46015625 8.94515625 3.6328125 9.8828125 C3.81457031 10.93082031 3.81457031 10.93082031 4 12 C3.34 11.67 2.68 11.34 2 11 C2 9.68 2 8.36 2 7 C1.34 7 0.68 7 0 7 C-0.38133299 5.0085944 -0.71325582 3.00720923 -1 1 C-0.67 0.67 -0.34 0.34 0 0 Z " fill="#321A27" transform="translate(204,508)"/>
<path d="M0 0 C2 4 2 4 1.6875 6.0625 C1.3471875 7.0215625 1.3471875 7.0215625 1 8 C0.67 8.99 0.34 9.98 0 11 C-0.66 11 -1.32 11 -2 11 C-1.34 7.37 -0.68 3.74 0 0 Z " fill="#E65843" transform="translate(791,500)"/>
<path d="M0 0 C0 0.66 0 1.32 0 2 C0.66 2.66 1.32 3.32 2 4 C-1.375 4.1875 -1.375 4.1875 -5 4 C-5.66 3.01 -6.32 2.02 -7 1 C-4.53721199 -0.231394 -2.7204945 -0.07159196 0 0 Z " fill="#FCE22C" transform="translate(379,590)"/>
<path d="M0 0 C0.66 0.33 1.32 0.66 2 1 C-0.31 3.31 -2.62 5.62 -5 8 C-5.33 7.01 -5.66 6.02 -6 5 C-4.02 3.35 -2.04 1.7 0 0 Z " fill="#8ED657" transform="translate(516,167)"/>
<path d="M0 0 C3.65316671 1.24976756 4.78065836 1.67098753 7 5 C5.02 5 3.04 5 1 5 C0.67 3.35 0.34 1.7 0 0 Z " fill="#91DC59" transform="translate(592,593)"/>
<path d="M0 0 C1.16959987 0.97566112 2.33561177 1.955625 3.5 2.9375 C4.1496875 3.48277344 4.799375 4.02804687 5.46875 4.58984375 C5.9740625 5.05519531 6.479375 5.52054687 7 6 C7 6.33 7 6.66 7 7 C5.02 7 3.04 7 1 7 C1.33 6.01 1.66 5.02 2 4 C1.12516085 1.83284443 1.12516085 1.83284443 0 0 Z " fill="#8DD455" transform="translate(439,363)"/>
<path d="M0 0 C0 3 0 3 -1.3125 4.38671875 C-2.875 5.59114583 -4.4375 6.79557292 -6 8 C-6.66 7.67 -7.32 7.34 -8 7 C-5.36 4.69 -2.72 2.38 0 0 Z " fill="#3D1723" transform="translate(547,306)"/>
<path d="M0 0 C0.33 0.66 0.66 1.32 1 2 C-0.59617578 5.83082186 -1.49984971 7.66656647 -5 10 C-3.66511872 6.40608886 -2.03977277 3.24509304 0 0 Z " fill="#2A2423" transform="translate(826,666)"/>
<path d="M0 0 C0.33 0.99 0.66 1.98 1 3 C-2.375 3.125 -2.375 3.125 -6 3 C-6.66 2.34 -7.32 1.68 -8 1 C-5.07175348 0.02391783 -3.04386724 -0.08226668 0 0 Z " fill="#522E2A" transform="translate(674,607)"/>
</svg>
